<?xml version="1.0" encoding="utf-8"?>
<!-- Generator: Adobe Illustrator 25.0.0, SVG Export Plug-In . SVG Version: 6.00 Build 0)  -->
<svg version="1.1" id="Layer_1" xmlns="http://www.w3.org/2000/svg" xmlns:xlink="http://www.w3.org/1999/xlink" x="0px" y="0px"
	 viewBox="0 0 990.05 515.56" style="enable-background:new 0 0 990.05 515.56;" xml:space="preserve">
<style type="text/css">
	.st0{fill:none;stroke:#18A349;stroke-width:2;stroke-miterlimit:10;}
	.st1{fill:#18A349;}
	.st2{fill:#FFFFFF;stroke:#18A349;stroke-miterlimit:10;}
	.st3{font-family:'ArialMT';}
	.st4{font-size:23.0572px;}
	.st5{font-size:20.1751px;}
	.st6{fill:#32489E;}
	.st7{font-size:15.5346px;}
	.st8{font-size:15.5351px;}
	.st9{font-size:24.9786px;}
	.st10{fill:none;stroke:#E22F25;stroke-miterlimit:10;}
	.st11{font-size:21.1358px;}
	.st12{fill:none;stroke:#B63825;stroke-width:1.25;stroke-miterlimit:10;}
	.st13{fill:none;stroke:#E22F25;stroke-width:2;stroke-miterlimit:10;}
	.st14{fill:#E22F25;}
	.st15{fill:none;stroke:#18A349;stroke-miterlimit:10;}
	.st16{font-size:23.8126px;}
	.st17{font-size:26.4535px;}
	.st18{font-size:30.6332px;}
	.st19{opacity:0.3;}
	.st20{fill:#282A71;}
	.st21{fill:none;stroke:#ED1C24;stroke-width:1.25;stroke-miterlimit:10;}
	.st22{fill:#ED1C24;}
	.st23{fill:none;stroke:#35429B;stroke-width:1.25;stroke-miterlimit:10;}
	.st24{fill:#35429B;}
	.st25{fill:none;stroke:#2A2E7B;stroke-width:1.25;stroke-miterlimit:10;}
	.st26{fill:#2A2E7B;}
	.st27{fill:#9DCF80;}
	.st28{fill:#231F20;}
	.st29{font-family:'Aptos-Bold';}
	.st30{font-size:25.4851px;}
</style>
<g>
	<g>
		<line class="st0" x1="422.08" y1="86.74" x2="504.11" y2="309.26"/>
		<g>
			<path class="st1" d="M508.28,320.59c-3.94-4.6-9.75-9.97-14.84-12.75l10.11-0.06l7.73-6.52
				C509.23,306.68,508.3,314.53,508.28,320.59z"/>
		</g>
	</g>
</g>
<ellipse class="st2" cx="524.22" cy="201.97" rx="53.37" ry="22.63"/>
<text transform="matrix(1 0 0 1 632.521 502.0527)" class="st3 st4">Intentions</text>
<text transform="matrix(1 0 0 1 484.1553 360.7637)" class="st3 st5">Attitude</text>
<text transform="matrix(0.9707 -0.2403 0.2403 0.9707 454.1522 145.6476)" class="st6 st3 st7">CHANGES!</text>
<text transform="matrix(0.9642 0.2653 -0.2653 0.9642 531.9168 48.6365)" class="st6 st3 st8">CHANGES!</text>
<text transform="matrix(1 0 0 1 624.2373 362.0586)" class="st3 st9">PBC</text>
<ellipse class="st10" cx="645.93" cy="354.14" rx="50.36" ry="19"/>
<text transform="matrix(1 0 0 1 743.5337 361.0977)" class="st3 st11">Inj Nrm</text>
<ellipse class="st10" cx="775.82" cy="354.14" rx="55.96" ry="19"/>
<ellipse class="st10" cx="679.41" cy="495.35" rx="61.37" ry="19.94"/>
<ellipse class="st12" cx="519.33" cy="354.14" rx="50.36" ry="19"/>
<g>
	<g>
		<line class="st13" x1="524.51" y1="376.67" x2="654.77" y2="465.24"/>
		<g>
			<path class="st14" d="M664.75,472.03c-5.88-1.45-13.73-2.44-19.48-1.75l8.19-5.93l2.5-9.8
				C657.43,460.16,661.24,467.09,664.75,472.03z"/>
		</g>
	</g>
</g>
<g>
	<g>
		<line class="st0" x1="407.52" y1="224.94" x2="487.32" y2="311.7"/>
		<g>
			<path class="st1" d="M495.49,320.59c-5.4-2.75-12.81-5.51-18.57-6.14l9.33-3.91l4.67-8.97
				C491.07,307.36,493.19,314.98,495.49,320.59z"/>
		</g>
	</g>
</g>
<g>
	<g>
		<line class="st0" x1="337.46" y1="148.25" x2="376.86" y2="97.54"/>
		<g>
			<path class="st1" d="M384.27,88c-1.82,5.78-3.3,13.55-2.98,19.34l-5.4-8.55l-9.62-3.12C371.96,94.56,379.12,91.2,384.27,88z"/>
		</g>
	</g>
</g>
<g>
	<g>
		<line class="st0" x1="530.02" y1="223.38" x2="763.55" y2="323.49"/>
		<g>
			<path class="st1" d="M774.64,328.24c-6.05-0.3-13.94,0.23-19.46,2.01l6.91-7.39l0.58-10.1
				C765.19,317.99,770.25,324.07,774.64,328.24z"/>
		</g>
	</g>
</g>
<g>
	<g>
		<line class="st0" x1="530.02" y1="223.38" x2="519.28" y2="305.69"/>
		<g>
			<path class="st1" d="M517.72,317.65c-1.36-5.9-4.01-13.36-7.22-18.18l8.99,4.64l9.87-2.18
				C525.02,305.77,520.55,312.29,517.72,317.65z"/>
		</g>
	</g>
</g>
<g>
	<g>
		<line class="st13" x1="761.06" y1="377.52" x2="685.28" y2="454.33"/>
		<g>
			<path class="st14" d="M676.81,462.92c2.49-5.52,4.88-13.06,5.24-18.85l4.35,9.13l9.19,4.23
				C689.8,457.86,682.29,460.35,676.81,462.92z"/>
		</g>
	</g>
</g>
<text transform="matrix(1 0 0 1 866.2368 361.0977)" class="st3 st11">Descr Nrm</text>
<ellipse class="st10" cx="910.05" cy="354.14" rx="55.96" ry="19"/>
<g>
	<g>
		<line class="st13" x1="895.3" y1="377.52" x2="699.27" y2="463.78"/>
		<g>
			<path class="st14" d="M688.22,468.64c4.35-4.22,9.35-10.35,11.82-15.59l0.68,10.09l6.98,7.32
				C702.17,468.73,694.27,468.28,688.22,468.64z"/>
		</g>
	</g>
</g>
<g>
	<g>
		<line class="st13" x1="645.93" y1="380.37" x2="667.2" y2="454.17"/>
		<g>
			<path class="st14" d="M670.54,465.76c-3.6-4.87-9-10.65-13.87-13.79l10.09,0.67l8.18-5.94
				C672.5,451.96,670.99,459.72,670.54,465.76z"/>
		</g>
	</g>
</g>
<text transform="matrix(0.9518 0 0 1 360.1582 50.4414)" class="st3 st5">Env Benefits</text>
<text transform="matrix(0.9518 0 0 1 383.6201 74.6514)" class="st3 st5">of BEV</text>
<ellipse class="st15" cx="408.58" cy="52.14" rx="66.98" ry="35.87"/>
<text transform="matrix(0.8064 0 0 1 481.0713 210.7568)" class="st3 st16">Symbolism</text>
<text transform="matrix(0.9518 0 0 1 302.8774 183.293)" class="st3 st5">Awareness of </text>
<text transform="matrix(0.9518 0 0 1 299.7554 207.5029)" class="st3 st5">Consequences</text>
<ellipse class="st15" cx="359.08" cy="189.47" rx="79.42" ry="42.84"/>
<text transform="matrix(1 0 0 1 59.786 82.6968)" class="st3 st17">Exo ~~ Exo</text>
<text transform="matrix(1 0 0 1 59.786 107.8868)" class="st3 st17">(e.g. AoC ~~ PBC)</text>
<text transform="matrix(1 0 0 1 24.8378 41.5542)" class="st3 st18" style="text-decoration: underline;">Assumptions:</text>
<circle cx="37.53" cy="73.56" r="12.84"/>
<text transform="matrix(1 0 0 1 59.786 152.5542)" class="st3 st17">Any exo ~~ endo</text>
<text transform="matrix(1 0 0 1 59.786 177.7442)" class="st3 st17">drawn explicitly</text>
<circle cx="37.53" cy="143.42" r="12.84"/>
<g class="st19">
	<g>
		<path class="st20" d="M541.12,330.16c3.2-3.56,6.42-7.11,10.03-10.27c3.23-2.82,6.71-5.35,10.37-7.56
			c7.33-4.43,15.4-7.6,23.77-9.37c16.66-3.52,34.14-1.03,49.26,6.74c8.42,4.33,15.99,10.2,22.23,17.32
			c0.53,0.61,1.41-0.28,0.88-0.88c-11.26-12.84-26.9-21.68-43.69-24.78c-17.04-3.15-34.89-0.09-50.09,8.18
			c-4.22,2.29-8.21,4.99-11.92,8.03c-4.29,3.52-8.03,7.59-11.74,11.71C539.7,329.88,540.58,330.76,541.12,330.16L541.12,330.16z"/>
	</g>
</g>
<g class="st19">
	<g>
		<path class="st20" d="M670.06,329.84c5.41,0.28,8.22-5.91,11.73-8.98c4.59-4.03,10.63-5.93,16.47-7.31
			c6.82-1.6,14.08-3.39,21.12-2.79c6.17,0.53,11.9,3.15,16.96,6.61c5.83,3.99,10.86,9.03,15.75,14.1c0.56,0.58,1.44-0.3,0.88-0.88
			c-8.4-8.72-17.96-18.23-30.32-20.62c-7-1.35-14.03,0.12-20.9,1.54c-5.85,1.21-11.85,2.63-17.04,5.72
			c-2.76,1.64-5.02,3.77-7.07,6.22c-1.95,2.34-4.21,5.32-7.59,5.15C669.26,328.54,669.26,329.79,670.06,329.84L670.06,329.84z"/>
	</g>
</g>
<g class="st19">
	<g>
		<path class="st20" d="M794.38,328.02c1.78-7.56,7.45-13.25,13.75-17.41c7.12-4.71,15.26-8.06,23.44-10.41
			c8.56-2.46,17.45-3.73,26.35-3.74c4.49,0,9.16,0.3,13.22,2.38c3.73,1.91,6.67,5,9.45,8.07c7.37,8.12,14.7,16.29,22.05,24.43
			c0.54,0.6,1.42-0.29,0.88-0.88c-6.89-7.64-13.79-15.28-20.68-22.92c-2.84-3.15-5.7-6.42-9.29-8.74c-3.69-2.39-7.96-3.29-12.3-3.51
			c-9.16-0.48-18.54,0.71-27.41,2.99c-8.61,2.22-17.15,5.55-24.74,10.22c-7.21,4.43-13.93,10.67-15.94,19.19
			C792.99,328.47,794.2,328.8,794.38,328.02L794.38,328.02z"/>
	</g>
</g>
<g class="st19">
	<g>
		<path class="st20" d="M548.77,383.06c14.59,15.33,32.96,26.96,53.1,33.48c11.53,3.74,23.55,5.7,35.57,7.04
			c12.53,1.4,25.13,2.29,37.69,3.35c12.79,1.08,25.57,2.29,38.38,3.18c12.56,0.88,25.1,1.04,37.6-0.66
			c12.41-1.68,24.59-4.72,36.68-7.91c11.86-3.13,23.65-6.57,35.33-10.29c23.22-7.4,46.07-15.97,68.44-25.64
			c2.84-1.23,5.67-2.48,8.5-3.74c0.73-0.33,0.1-1.41-0.63-1.08c-22.25,9.95-44.99,18.8-68.12,26.49
			c-11.43,3.8-22.96,7.32-34.57,10.55c-11.74,3.27-23.56,6.41-35.53,8.71c-12.38,2.38-24.82,3.34-37.42,2.89
			c-12.65-0.45-25.28-1.77-37.89-2.83c-12.5-1.06-25.01-2.07-37.51-3.18c-12.21-1.09-24.43-2.45-36.37-5.32
			c-21.17-5.09-40.88-15.57-56.83-30.42c-1.91-1.78-3.75-3.61-5.55-5.5C549.09,381.59,548.21,382.47,548.77,383.06L548.77,383.06z"
			/>
	</g>
</g>
<g class="st19">
	<g>
		<path class="st20" d="M563.64,375.79c18.94,14.11,42.18,21.36,65.53,23.42c26.51,2.35,53.22-1.8,78.95-8
			c12.28-2.96,24.77-6.81,34.53-15.17c0.61-0.52-0.28-1.4-0.88-0.88c-8.72,7.47-19.78,11.24-30.74,14.04
			c-12.57,3.21-25.36,5.77-38.23,7.46c-24.58,3.23-49.91,2.85-73.74-4.53c-12.46-3.86-24.32-9.61-34.8-17.42
			C563.63,374.23,563,375.32,563.64,375.79L563.64,375.79z"/>
	</g>
</g>
<g>
	<g>
		<path class="st21" d="M483.24,31.36c25.98-6.8,74.46-7.06,142.89,9.32C700.61,58.5,877.4,262.52,916,318.46"/>
		<g>
			<path class="st22" d="M470.85,35.9c6.63,0.1,15.2,1.24,21.1,3.58l-7.02-8.55l0.08-11.06C481.89,25.38,475.93,31.65,470.85,35.9z"
				/>
		</g>
		<g>
			<path class="st22" d="M922.9,329.72c-5.25-4.04-12.68-8.48-18.75-10.31l10.81-2.34l6.81-8.71
				C920.78,314.62,921.55,323.23,922.9,329.72z"/>
		</g>
	</g>
</g>
<g>
	<g>
		<path class="st23" d="M493.25,52.12c25.26-0.4,71.14,5.61,125.2,40.01c48.61,30.93,136.78,178.11,162.48,227.07"/>
		<g>
			<path class="st24" d="M480.08,53.03c6.35,1.9,14.29,5.33,19.33,9.18l-4.42-10.14l3.09-10.62
				C493.57,45.91,486.13,50.33,480.08,53.03z"/>
		</g>
		<g>
			<path class="st24" d="M786.8,331.02c-4.85-4.52-11.82-9.65-17.68-12.05l10.99-1.3l7.61-8.03
				C786.13,315.78,786.07,324.43,786.8,331.02z"/>
		</g>
	</g>
</g>
<g>
	<g>
		<path class="st21" d="M484.6,64.46c5.18,3.8,14.49,10.82,31.02,23.11c39.05,29.05,34.88,52.41,30.63,78.36"/>
		<g>
			<path class="st22" d="M471.48,62.93c5.76,3.28,12.73,8.4,16.77,13.28l-2.04-10.87l5.39-9.66
				C486.23,59.03,477.99,61.66,471.48,62.93z"/>
		</g>
		<g>
			<path class="st22" d="M544.33,178.99c-1.38-6.48-4.15-14.68-7.58-20.01l9.75,5.24l10.84-2.21
				C552.52,166.13,547.51,173.18,544.33,178.99z"/>
		</g>
	</g>
</g>
<g>
	<g>
		<path class="st21" d="M512.6,71.54c8.31,2.31,20.06,7.05,36.38,16.03c36.52,20.09,102.68,171.62,112.5,223.99"/>
		<g>
			<path class="st22" d="M501.21,64.87c4.28,5.06,9.06,12.27,11.17,18.25l1.84-10.91l8.39-7.21
				C516.4,66.28,507.76,65.91,501.21,64.87z"/>
		</g>
		<g>
			<path class="st22" d="M662.57,324.71c-2.88-5.97-7.52-13.27-12.12-17.63l10.71,2.76l10-4.73
				C667.47,310.27,664.28,318.31,662.57,324.71z"/>
		</g>
	</g>
</g>
<g>
	<g>
		<path class="st25" d="M441.64,166.8c18.18-11.04,52.28-31.2,92.46-27.05c41.85,4.33,197.68,117.43,225.88,163"/>
		<g>
			<path class="st26" d="M428.59,168.75c6.53,1.15,14.81,3.63,20.26,6.87l-5.57-9.56l1.83-10.91
				C441.17,160.11,434.29,165.36,428.59,168.75z"/>
		</g>
		<g>
			<path class="st26" d="M764.33,315.23c-4.33-5.01-10.72-10.85-16.29-13.87l11.06-0.12l8.42-7.17
				C765.29,300.01,764.31,308.6,764.33,315.23z"/>
		</g>
	</g>
</g>
<rect x="343.15" y="115.65" class="st27" width="28.03" height="22.69"/>
<text transform="matrix(1 0 0 1 348.0192 134.2192)" class="st28 st29 st30">a</text>
<rect x="413.76" y="241.84" class="st27" width="35.09" height="22.69"/>
<text transform="matrix(1 0 0 1 418.6316 260.4128)" class="st28 st29 st30">c1</text>
<rect x="414.11" y="98.85" class="st27" width="34.38" height="22.69"/>
<text transform="matrix(1 0 0 1 418.9861 117.4236)" class="st28 st29 st30">b1</text>
<rect x="595.57" y="432.72" class="st27" width="40.51" height="22.69"/>
<text transform="matrix(1 0 0 1 600.442 451.2942)" class="st28 st29 st30">d1</text>
</svg>
