<?xml version="1.0" encoding="utf-8"?>
<!-- Generator: Adobe Illustrator 25.0.0, SVG Export Plug-In . SVG Version: 6.00 Build 0)  -->
<svg version="1.1" id="Layer_1" xmlns="http://www.w3.org/2000/svg" xmlns:xlink="http://www.w3.org/1999/xlink" x="0px" y="0px"
	 viewBox="0 0 810.2 360" style="enable-background:new 0 0 810.2 360;" xml:space="preserve">
<style type="text/css">
	.st0{fill:none;stroke:#91278C;stroke-miterlimit:10;}
	.st1{fill:#231F20;}
	.st2{font-family:'ArialMT';}
	.st3{font-size:14px;}
	.st4{font-size:20.1512px;}
	.st5{font-size:17.6323px;}
	.st6{font-size:21.8305px;}
	.st7{fill:none;stroke:#E12F25;stroke-miterlimit:10;}
	.st8{font-size:18.4719px;}
	.st9{fill:none;stroke:#B53825;stroke-width:1.25;stroke-miterlimit:10;}
	.st10{fill:none;stroke:#231F20;stroke-width:2;stroke-miterlimit:10;}
	.st11{fill:none;stroke:#E12F25;stroke-width:2;stroke-miterlimit:10;}
	.st12{fill:#E12F25;}
	.st13{fill:#231F20;stroke:#231F20;stroke-miterlimit:10;}
	.st14{fill:none;stroke:#BD3F96;stroke-width:2;stroke-miterlimit:10;}
	.st15{fill:#BD3F96;}
	.st16{fill:none;stroke:#2C3995;stroke-width:2;stroke-miterlimit:10;}
	.st17{fill:#2C3995;}
	.st18{fill:none;stroke:#2C3995;stroke-miterlimit:10;}
	.st19{fill:#DD4926;}
	.st20{fill:#5CBA47;}
	.st21{fill:#5253A3;}
	.st22{fill:none;stroke:#E03A26;stroke-miterlimit:10;}
	.st23{fill:none;stroke:#40B449;stroke-miterlimit:10;}
	.st24{fill:none;stroke:#98268B;stroke-width:2;stroke-miterlimit:10;}
	.st25{fill:#98268B;}
</style>
<ellipse class="st0" cx="613.2" cy="48.1" rx="46" ry="18.7"/>
<text transform="matrix(1 0 0 1 574.1382 52.6376)" class="st1 st2 st3">Observability</text>
<text transform="matrix(1 0 0 1 387.8786 328.106)" class="st1 st2 st4">Intentions</text>
<text transform="matrix(1 0 0 1 265.6003 204.6245)" class="st1 st2 st5">Attitude</text>
<text transform="matrix(1 0 0 1 388.0271 205.7554)" class="st1 st2 st6">PBC</text>
<ellipse class="st7" cx="407" cy="198.8" rx="44" ry="16.6"/>
<text transform="matrix(1 0 0 1 492.2888 204.9155)" class="st1 st2 st8">Inj Nrm</text>
<ellipse class="st7" cx="520.5" cy="198.8" rx="48.9" ry="16.6"/>
<ellipse class="st7" cx="436.2" cy="322.2" rx="53.6" ry="17.4"/>
<ellipse class="st9" cx="296.3" cy="198.8" rx="44" ry="16.6"/>
<g>
	<g>
		<line class="st10" x1="300.9" y1="218.5" x2="413.5" y2="295.1"/>
		<g>
			<path class="st1" d="M423.4,301.9c-5.9-1.5-13.7-2.4-19.5-1.8l8.2-5.9l2.5-9.8C416.1,290,419.9,296.9,423.4,301.9z"/>
		</g>
	</g>
</g>
<g>
	<g>
		<line class="st11" x1="411.7" y1="85.5" x2="297.8" y2="170.5"/>
		<g>
			<path class="st12" d="M288.1,177.7c3.3-5.1,6.8-12.2,8-17.8l2.9,9.7l8.4,5.6C301.7,174.7,293.9,176,288.1,177.7z"/>
		</g>
	</g>
</g>
<g>
	<g>
		<line class="st11" x1="411.7" y1="85.5" x2="405.2" y2="165.1"/>
		<g>
			<path class="st12" d="M404.2,177.1c-1.6-5.8-4.6-13.1-8.1-17.8l9.2,4.2l9.8-2.7C410.9,164.9,406.8,171.6,404.2,177.1z"/>
		</g>
	</g>
</g>
<g>
	<g>
		<line class="st10" x1="325.7" y1="70.8" x2="317.4" y2="163.1"/>
		<g>
			<path class="st13" d="M316.1,177.1c-2.1-6.8-6-15.3-10.5-20.7l11.9,4.9l12.6-3.1C324.8,162.9,319.4,170.7,316.1,177.1z"/>
		</g>
	</g>
</g>
<g>
	<g>
		<line class="st10" x1="330.2" y1="70.8" x2="383.2" y2="166.6"/>
		<g>
			<path class="st13" d="M384.7,179.2c2.5-6.1,7-13.8,12.2-18.7l-13.9,4.4l-14.7-2.8C374.6,166.4,380.8,173.5,384.7,179.2z"/>
		</g>
	</g>
</g>
<g>
	<g>
		<line class="st14" x1="607.3" y1="69.2" x2="628.3" y2="166.5"/>
		<g>
			<path class="st15" d="M630.9,178.3c-3.3-5.1-8.3-11.2-12.9-14.7l10,1.4l8.6-5.4C633.8,164.7,631.8,172.3,630.9,178.3z"/>
		</g>
	</g>
</g>
<g>
	<g>
		<line class="st14" x1="607.3" y1="69.2" x2="315.1" y2="176.8"/>
		<g>
			<path class="st15" d="M303.8,181c4.6-3.9,10-9.8,12.8-14.8l0.1,10.1l6.5,7.7C317.7,181.9,309.8,181,303.8,181z"/>
		</g>
	</g>
</g>
<g>
	<g>
		<line class="st16" x1="714.5" y1="70.8" x2="422.7" y2="173.4"/>
		<g>
			<path class="st17" d="M411.3,177.4c4.7-3.9,10.1-9.6,13-14.6l-0.1,10.1l6.4,7.8C425.2,178.6,417.4,177.5,411.3,177.4z"/>
		</g>
	</g>
</g>
<g>
	<g>
		<line class="st16" x1="718" y1="69" x2="335.8" y2="178.5"/>
		<g>
			<path class="st17" d="M324.2,181.9c4.9-3.6,10.7-9,13.8-13.9l-0.7,10.1l5.9,8.2C338,183.8,330.3,182.3,324.2,181.9z"/>
		</g>
	</g>
</g>
<g>
	<g>
		<line class="st10" x1="507.6" y1="219.3" x2="442.5" y2="285.3"/>
		<g>
			<path class="st1" d="M434,293.9c2.5-5.5,4.9-13.1,5.2-18.9l4.3,9.1l9.2,4.2C447,288.9,439.5,291.3,434,293.9z"/>
		</g>
	</g>
</g>
<text transform="matrix(1 0 0 1 599.5271 204.9155)" class="st1 st2 st8">Descr Nrm</text>
<ellipse class="st7" cx="637.8" cy="198.8" rx="48.9" ry="16.6"/>
<g>
	<g>
		<line class="st10" x1="624.9" y1="219.3" x2="455" y2="294"/>
		<g>
			<path class="st1" d="M444,298.9c4.3-4.2,9.3-10.4,11.8-15.6l0.7,10.1l7,7.3C457.9,299,450,298.5,444,298.9z"/>
		</g>
	</g>
</g>
<g>
	<g>
		<line class="st10" x1="407" y1="221.8" x2="425.1" y2="284.8"/>
		<g>
			<path class="st1" d="M428.5,296.4c-3.6-4.9-9-10.6-13.9-13.8l10.1,0.7l8.2-5.9C430.5,282.6,429,290.4,428.5,296.4z"/>
		</g>
	</g>
</g>
<ellipse class="st18" cx="730.1" cy="50.9" rx="46" ry="18.7"/>
<text transform="matrix(1 0 0 1 697.3701 50.5639)" class="st1 st2 st3">Find Public</text>
<text transform="matrix(1 0 0 1 706.4101 62.5639)" class="st1 st2 st3">Charger</text>
<g>
	<g>
		<path class="st19" d="M374.3,531.6c0.8,0,0.8-1.2,0-1.2C373.5,530.4,373.5,531.6,374.3,531.6L374.3,531.6z"/>
	</g>
</g>
<g>
	<g>
		<path class="st19" d="M330.3,217.6c4.5,4.9,11.5,5.6,17.7,5.7c4.3,0,8.6-0.1,12.9-0.2c3.4-0.1,6.9,0,10.2-0.7
			c3.2-0.6,6.2-2.1,8-4.9c0.4-0.7-0.6-1.3-1.1-0.6c-2.1,3.4-6.2,4.4-9.9,4.7c-4.6,0.4-9.2,0.3-13.8,0.4c-7.7,0.1-17.5,1.1-23.2-5.2
			C330.7,216.1,329.8,217,330.3,217.6L330.3,217.6z"/>
	</g>
</g>
<g>
	<g>
		<path class="st19" d="M433.8,222.6c7.5,2.1,14.2,6.1,21.7,8c3.4,0.9,7,1.3,10.5,0.8c3.6-0.5,6.9-2.1,9.9-4.1
			c3.5-2.3,6.5-5.2,9.5-8c0.6-0.6-0.3-1.4-0.9-0.9c-5.1,4.9-10.7,10.2-17.9,11.6c-7.2,1.4-14.4-1.5-20.9-4.2
			c-3.8-1.6-7.7-3.3-11.7-4.4C433.4,221.1,433,222.3,433.8,222.6L433.8,222.6z"/>
	</g>
</g>
<g>
	<g>
		<path class="st19" d="M521.8,229.2c20.6,2.3,42.4,4.6,62-3.9c4.9-2.1,9.4-4.9,13.5-8.4c0.6-0.5-0.3-1.4-0.9-0.9
			c-15.4,13.2-36.6,15.1-56,13.8c-6.2-0.4-12.4-1.1-18.5-1.8C521,227.8,521,229.1,521.8,229.2L521.8,229.2z"/>
	</g>
</g>
<g>
	<g>
		<path class="st20" d="M327.4,223.5c8.5,10.1,19.3,18.2,31.3,23.6c12.6,5.7,26.2,8.3,40,8.1c15.7-0.3,31.1-3.5,46.5-6.5
			c13.3-2.6,26.7-5.4,39.6-9.8c14.2-4.8,27.7-11.5,39.1-21.3c0.6-0.5-0.3-1.4-0.9-0.9c-20.5,17.6-47.4,24.6-73.3,29.8
			c-14.8,2.9-29.7,6.1-44.7,7.1c-14.2,1-28.2-0.6-41.5-5.8c-13.6-5.4-25.9-14.1-35.3-25.2C327.8,222,326.9,222.9,327.4,223.5
			L327.4,223.5z"/>
	</g>
</g>
<g>
	<g>
		<path class="st20" d="M415.8,223.9c22.8,17,51.5,24,79.5,24.7c15.9,0.4,31.8-1.1,47.5-3.5c14-2.1,28.1-4.6,41.8-8.7
			c14.5-4.3,28.6-10.5,40.5-20.1c0.6-0.5-0.3-1.4-0.9-0.9c-21.5,17.3-49.5,23.2-76.1,27.5c-29.7,4.9-60.6,7-90-0.7
			c-14.9-3.9-29.2-10.2-41.6-19.5C415.7,222.4,415.1,223.4,415.8,223.9L415.8,223.9z"/>
	</g>
</g>
<g>
	<g>
		<path class="st21" d="M340.5,211.8c9,4.9,16.3,12.4,25.4,17.1c9,4.7,19.1,6.5,29.1,7.6c11.2,1.2,22.4,1.8,33.6,2.7
			c11.3,0.9,22.6,1.7,33.8,2.5c22.7,1.6,45.4,2.8,68.2,2.7c22.4-0.1,44.7-1.3,66.8-4.7c10.9-1.6,21.8-3.7,32.4-6.6
			c8.6-2.3,17.3-5.4,24.2-11.1c1.7-1.4,3.3-3.1,4.8-4.8c0.5-0.6-0.4-1.5-0.9-0.9c-5.9,7.2-14.4,11.3-23.2,14.1
			c-9.9,3.1-20.3,5.1-30.5,6.9c-22,3.8-44.4,5.4-66.7,5.7c-22.2,0.3-44.5-0.6-66.6-2.1c-22.4-1.4-44.9-3.2-67.3-5
			c-10.3-0.8-20.7-1.8-30.4-5.3c-9.8-3.5-17.4-10.2-25.9-16.1c-2-1.4-4.1-2.7-6.3-3.9C340.4,210.3,339.8,211.4,340.5,211.8
			L340.5,211.8z"/>
	</g>
</g>
<ellipse class="st22" cx="296.3" cy="50.6" rx="53.6" ry="20"/>
<text transform="matrix(1 0 0 1 257.9472 57.3484)" class="st1 st2 st3">Compatibility</text>
<ellipse class="st23" cx="429.5" cy="51.8" rx="45.2" ry="28"/>
<text transform="matrix(1 0 0 1 410.4322 52.0091)" class="st1 st2 st3">Range</text>
<text transform="matrix(1 0 0 1 406.7322 64.0091)" class="st1 st2 st3">Anxiety</text>
<ellipse class="st23" cx="429.5" cy="51.8" rx="45.2" ry="28"/>
<text transform="matrix(1 0 0 1 410.4322 52.0091)" class="st1 st2 st3">Range</text>
<text transform="matrix(1 0 0 1 406.7322 64.0091)" class="st1 st2 st3">Anxiety</text>
<g>
	<g>
		<line class="st11" x1="333.7" y1="77.1" x2="520.4" y2="176.9"/>
		<g>
			<path class="st12" d="M531,182.6c-6-0.8-13.9-1-19.6,0.3l7.5-6.8l1.4-10C522.5,171.6,527,178.1,531,182.6z"/>
		</g>
	</g>
</g>
<g>
	<g>
		<line class="st11" x1="619.5" y1="174.3" x2="325.7" y2="70.8"/>
		<g>
			<path class="st12" d="M630.9,178.3c-4.7-3.9-10.1-9.6-13-14.7l0.1,10.1l-6.4,7.8C617,179.4,624.8,178.4,630.9,178.3z"/>
		</g>
	</g>
</g>
<text transform="matrix(1 0 0 1 44.0399 51.9156)" class="st1 st2 st3">Power</text>
<text transform="matrix(1 0 0 1 27.9399 63.9156)" class="st1 st2 st3">Perceptions</text>
<ellipse class="st11" cx="62.6" cy="55.3" rx="50.6" ry="23.4"/>
<text transform="matrix(1 0 0 1 142.4659 51.9156)" class="st1 st2 st3">Non-power</text>
<text transform="matrix(1 0 0 1 141.1659 63.9156)" class="st1 st2 st3">Perceptions</text>
<ellipse class="st24" cx="175.7" cy="55.3" rx="50.6" ry="23.4"/>
<g>
	<g>
		<line class="st11" x1="71.4" y1="80.7" x2="250.6" y2="169.5"/>
		<g>
			<path class="st12" d="M261.4,174.8c-6-0.6-13.9-0.5-19.5,0.9l7.3-7l1.1-10C252.5,164.1,257.2,170.4,261.4,174.8z"/>
		</g>
	</g>
</g>
<g>
	<g>
		<line class="st24" x1="181" y1="78.7" x2="269.6" y2="158.2"/>
		<g>
			<path class="st25" d="M278.6,166.2c-5.6-2.2-13.3-4.3-19.1-4.3l8.9-4.8l3.8-9.4C272.9,153.5,275.8,160.9,278.6,166.2z"/>
		</g>
	</g>
</g>
<g>
	<g>
		<line class="st24" x1="181" y1="78.7" x2="370.7" y2="165.2"/>
		<g>
			<path class="st25" d="M381.7,170.2c-6-0.4-13.9-0.1-19.5,1.6l7.1-7.2l0.8-10.1C372.5,159.7,377.4,165.9,381.7,170.2z"/>
		</g>
	</g>
</g>
<g>
	<g>
		<line class="st11" x1="71.4" y1="80.7" x2="374.9" y2="173.4"/>
		<g>
			<path class="st12" d="M386.5,176.9c-6,0.4-13.8,1.7-19.1,4.1l6.1-8.1l-0.5-10.1C376,167.7,381.7,173.2,386.5,176.9z"/>
		</g>
	</g>
</g>
</svg>
